<svg xmlns="http://www.w3.org/2000/svg" viewBox="0 0 108 108" width="108" height="108"><defs><linearGradient id="c06bg" x1="0" y1="0" x2="1" y2="1"><stop offset="0" stop-color="#EEE8FD"/><stop offset="1" stop-color="#F7DDE7"/></linearGradient><linearGradient id="c06n" x1="0" y1="0" x2="0" y2="1"><stop offset="0" stop-color="#2E2275"/><stop offset="1" stop-color="#120C38"/></linearGradient><linearGradient id="c06g" x1="0" y1="0" x2="0" y2="1"><stop offset="0" stop-color="#FFEDB2"/><stop offset="0.5" stop-color="#F4C65A"/><stop offset="1" stop-color="#D99A22"/></linearGradient></defs><g transform="rotate(-8 54 54)"><path d="M38,30.5 H73 A3,3 0 0,1 76,33.5 V77.5 A3,3 0 0,1 73,80.5 H38 A3,3 0 0,1 35,77.5 V33.5 A3,3 0 0,1 38,30.5 Z" fill="#3A2E6E" opacity="0.16"/><path d="M36.5,28 H71.5 A3,3 0 0,1 74.5,31 V75 A3,3 0 0,1 71.5,78 H36.5 A3,3 0 0,1 33.5,75 V31 A3,3 0 0,1 36.5,28 Z" fill="#FFFFFF"/><path d="M39,32 H69 A1.5,1.5 0 0,1 70.5,33.5 V63.5 A1.5,1.5 0 0,1 69,65 H39 A1.5,1.5 0 0,1 37.5,63.5 V33.5 A1.5,1.5 0 0,1 39,32 Z" fill="url(#c06n)"/><circle cx="43.5" cy="38.5" r="0.8" fill="#EDE8FF"/><circle cx="64.5" cy="40" r="0.7" fill="#EDE8FF" opacity="0.8"/><circle cx="62" cy="53" r="0.6" fill="#EDE8FF" opacity="0.7"/><path d="M37.5,60.5 Q50,55 70.5,59.5 V65 H37.5 Z" fill="#3B2C86"/><path d="M54,38.72 L56.12,44.4 L62.18,44.66 L57.44,48.44 L59.05,54.28 L54,50.93 L48.95,54.28 L50.56,48.44 L45.82,44.66 L51.88,44.4 Z" fill="url(#c06g)"/><path d="M42,71.8 C46,70.2 49,73 53,71.4 S59,70.6 62,71.6" fill="none" stroke="#B9B0DF" stroke-width="1.5" stroke-linecap="round"/></g></svg>