<svg xmlns="http://www.w3.org/2000/svg" viewBox="0 0 108 108" width="108" height="108"><defs><radialGradient id="z9bg" cx="0.5" cy="0.42" r="0.72"><stop offset="0" stop-color="#30237A"/><stop offset="0.55" stop-color="#170F45"/><stop offset="1" stop-color="#090720"/></radialGradient><linearGradient id="z9g" x1="0" y1="0" x2="0" y2="1"><stop offset="0" stop-color="#FFEDB2"/><stop offset="0.5" stop-color="#F4C65A"/><stop offset="1" stop-color="#D99A22"/></linearGradient><radialGradient id="z9glow" cx="0.5" cy="0.5" r="0.5"><stop offset="0" stop-color="#F4C65A" stop-opacity="0.5"/><stop offset="1" stop-color="#F4C65A" stop-opacity="0"/></radialGradient></defs><g transform="translate(54 54) scale(0.92) translate(-54 -54)"><path d="M54.71,53.29 L52.41,38.78 L65.5,32.11 L75.89,42.5 L69.22,55.59 L54.71,53.29 M54.71,53.29 L33.14,74.86 L40.56,82.28 M40.21,67.79 L47.64,75.21" fill="none" stroke="#C4BCFA" stroke-width="3.6" stroke-linecap="round" stroke-linejoin="round"/><circle cx="75.89" cy="42.5" r="18" fill="url(#z9glow)"/><circle cx="54.71" cy="53.29" r="3.5" fill="#F6F3FF"/><circle cx="52.41" cy="38.78" r="3.5" fill="#F6F3FF"/><circle cx="65.5" cy="32.11" r="3.5" fill="#F6F3FF"/><circle cx="69.22" cy="55.59" r="3.5" fill="#F6F3FF"/><circle cx="47.64" cy="75.21" r="3.5" fill="#F6F3FF"/><circle cx="40.56" cy="82.28" r="3.5" fill="#F6F3FF"/><path d="M75.89,30 L77.46,38.71 L82.11,36.28 L79.68,40.93 L88.39,42.5 L79.68,44.07 L82.11,48.72 L77.46,46.29 L75.89,55 L74.32,46.29 L69.67,48.72 L72.1,44.07 L63.39,42.5 L72.1,40.93 L69.67,36.28 L74.32,38.71 Z" fill="url(#z9g)" stroke="url(#z9g)" stroke-width="0.8" stroke-linejoin="round"/></g></svg>