<svg xmlns="http://www.w3.org/2000/svg" viewBox="0 0 108 108" width="108" height="108"><defs><radialGradient id="c08bg" cx="0.5" cy="0.35" r="0.85"><stop offset="0" stop-color="#FFFFFF"/><stop offset="0.6" stop-color="#F1EEFC"/><stop offset="1" stop-color="#DFDAF5"/></radialGradient><linearGradient id="c08s" x1="0" y1="0" x2="0" y2="1"><stop offset="0" stop-color="#3D3794"/><stop offset="1" stop-color="#221D5E"/></linearGradient><linearGradient id="c08g" x1="0" y1="0" x2="0" y2="1"><stop offset="0" stop-color="#FFEDB2"/><stop offset="0.5" stop-color="#F4C65A"/><stop offset="1" stop-color="#D99A22"/></linearGradient></defs><g transform="rotate(-22 54 55)"><path d="M23,55 A31,11.5 0 1,1 85,55" fill="none" stroke="#8E8CEB" stroke-width="2.6"/></g><path d="M54,31.5 Q56.5,51.5 68.5,54 Q56.5,56.5 54,76.5 Q51.5,56.5 39.5,54 Q51.5,51.5 54,31.5 Z" fill="url(#c08s)"/><g transform="rotate(-22 54 55)"><path d="M34.91,64.06 A31,11.5 0 0,0 73.09,64.06" fill="none" stroke="#F1EEFC" stroke-width="6.5"/><path d="M23,55 A31,11.5 0 0,0 85,55" fill="none" stroke="#8E8CEB" stroke-width="2.6"/></g><circle cx="78.79" cy="52.96" r="4.6" fill="#F1EEFC"/><circle cx="78.79" cy="52.96" r="3.6" fill="url(#c08g)"/></svg>